<svg width="760" height="520" viewBox="0 0 760 520" xmlns="http://www.w3.org/2000/svg" shape-rendering="crispEdges">
  <rect width="760" height="520" fill="#cfefff"/>

  <g transform="translate(30 28)">
    <rect width="700" height="464" fill="#1f4666"/>
    <rect x="8" y="8" width="684" height="448" fill="#eef8ff"/>

    <!-- Tier -->
    <g transform="translate(20 24)">
      <rect width="206" height="400" fill="#214866"/>
      <rect x="8" y="8" width="190" height="384" fill="#dbf4ca"/>
      <rect x="8" y="8" width="190" height="46" fill="#214866"/>
      <text x="103" y="39" text-anchor="middle" font-family="monospace" font-size="28" font-weight="700" fill="#ffffff">TIER</text>

      <rect x="44" y="88" width="102" height="102" fill="#ffbe78"/>
      <rect x="56" y="76" width="20" height="16" fill="#2a1c17"/>
      <rect x="114" y="76" width="20" height="16" fill="#2a1c17"/>
      <rect x="64" y="106" width="14" height="14" fill="#1a1f27"/>
      <rect x="112" y="106" width="14" height="14" fill="#1a1f27"/>
      <rect x="86" y="132" width="18" height="14" fill="#1a1f27"/>
      <rect x="78" y="150" width="34" height="8" fill="#1a1f27"/>
      <rect x="50" y="206" width="90" height="14" fill="#4f8a40"/>
      <rect x="42" y="220" width="106" height="12" fill="#2f5f2e"/>

      <rect x="30" y="268" width="146" height="84" fill="#f7fff2"/>
      <text x="103" y="304" text-anchor="middle" font-family="monospace" font-size="24" font-weight="700" fill="#214866">KATZE</text>
    </g>

    <!-- Ding -->
    <g transform="translate(247 24)">
      <rect width="206" height="400" fill="#5f3078"/>
      <rect x="8" y="8" width="190" height="384" fill="#ffd5ef"/>
      <rect x="8" y="8" width="190" height="46" fill="#5f3078"/>
      <text x="103" y="39" text-anchor="middle" font-family="monospace" font-size="28" font-weight="700" fill="#ffffff">DING</text>

      <rect x="70" y="84" width="54" height="18" fill="#2a313c"/>
      <rect x="58" y="102" width="78" height="24" fill="#5fe3d2"/>
      <rect x="38" y="126" width="118" height="118" fill="#5fe3d2"/>
      <rect x="62" y="150" width="70" height="66" fill="#f4fdff"/>
      <rect x="72" y="160" width="50" height="46" fill="#1d5f96"/>
      <rect x="26" y="170" width="12" height="40" fill="#ff9e58"/>
      <rect x="156" y="170" width="12" height="40" fill="#ff9e58"/>
      <rect x="72" y="244" width="50" height="22" fill="#ff7d3d"/>
      <rect x="80" y="266" width="34" height="18" fill="#ffd55a"/>

      <rect x="30" y="268" width="146" height="84" fill="#fff3ff"/>
      <text x="103" y="304" text-anchor="middle" font-family="monospace" font-size="24" font-weight="700" fill="#5f3078">RAKETE</text>
    </g>

    <!-- Name -->
    <g transform="translate(474 24)">
      <rect width="206" height="400" fill="#9a3b21"/>
      <rect x="8" y="8" width="190" height="384" fill="#ffe1b4"/>
      <rect x="8" y="8" width="190" height="46" fill="#9a3b21"/>
      <text x="103" y="39" text-anchor="middle" font-family="monospace" font-size="28" font-weight="700" fill="#ffffff">NAME</text>

      <!-- Namenskarte -->
      <rect x="30" y="88" width="146" height="160" fill="#fff7eb"/>
      <rect x="38" y="96" width="130" height="144" fill="#f2fbff"/>
      <rect x="84" y="118" width="38" height="38" fill="#ffd5a3"/>
      <rect x="94" y="130" width="8" height="8" fill="#17364f"/>
      <rect x="104" y="130" width="8" height="8" fill="#17364f"/>
      <rect x="96" y="142" width="16" height="6" fill="#17364f"/>

      <rect x="52" y="170" width="102" height="8" fill="#7fb4d8"/>
      <rect x="52" y="184" width="102" height="8" fill="#7fb4d8"/>
      <rect x="52" y="198" width="70" height="8" fill="#7fb4d8"/>

      <rect x="30" y="268" width="146" height="84" fill="#ffffff"/>
      <text x="103" y="304" text-anchor="middle" font-family="monospace" font-size="24" font-weight="700" fill="#9a3b21">NORA</text>
    </g>
  </g>
</svg>
