<svg width="760" height="520" viewBox="0 0 760 520" xmlns="http://www.w3.org/2000/svg" shape-rendering="crispEdges">
  <rect width="760" height="520" fill="#cfefff"/>

  <g transform="translate(34 34)">
    <rect width="208" height="452" fill="#214766"/>
    <rect x="8" y="8" width="192" height="436" fill="#dbf4ca"/>
    <text x="104" y="44" text-anchor="middle" font-family="monospace" font-size="30" font-weight="700" fill="#1c4d34">TIER</text>

    <rect x="46" y="82" width="116" height="116" fill="#ffbe78"/>
    <rect x="60" y="68" width="22" height="18" fill="#2d1c18"/>
    <rect x="126" y="68" width="22" height="18" fill="#2d1c18"/>
    <rect x="66" y="102" width="18" height="18" fill="#1b2028"/>
    <rect x="124" y="102" width="18" height="18" fill="#1b2028"/>
    <rect x="90" y="134" width="28" height="20" fill="#1b2028"/>
    <rect x="78" y="160" width="52" height="10" fill="#1b2028"/>

    <rect x="40" y="228" width="128" height="20" fill="#4f8a40"/>
    <rect x="30" y="248" width="148" height="16" fill="#2f5f2e"/>
    <rect x="56" y="264" width="24" height="30" fill="#2f5f2e"/>
    <rect x="128" y="264" width="24" height="30" fill="#2f5f2e"/>

    <rect x="30" y="316" width="148" height="96" fill="#f0ffe7"/>
    <text x="104" y="352" text-anchor="middle" font-family="monospace" font-size="20" font-weight="700" fill="#1c4d34">KATZE</text>
  </g>

  <g transform="translate(276 34)">
    <rect width="208" height="452" fill="#622f7d"/>
    <rect x="8" y="8" width="192" height="436" fill="#ffd5ef"/>
    <text x="104" y="44" text-anchor="middle" font-family="monospace" font-size="30" font-weight="700" fill="#4f1b58">DING</text>

    <rect x="70" y="74" width="68" height="22" fill="#26303b"/>
    <rect x="58" y="96" width="92" height="28" fill="#5fe3d2"/>
    <rect x="36" y="124" width="136" height="136" fill="#5fe3d2"/>
    <rect x="62" y="150" width="84" height="74" fill="#f4fdff"/>
    <rect x="72" y="160" width="64" height="54" fill="#1d5f96"/>
    <rect x="22" y="172" width="14" height="44" fill="#ff9e58"/>
    <rect x="172" y="172" width="14" height="44" fill="#ff9e58"/>
    <rect x="72" y="260" width="64" height="24" fill="#ff7d3d"/>
    <rect x="82" y="284" width="44" height="22" fill="#ffd55a"/>
    <rect x="90" y="306" width="28" height="18" fill="#ffe697"/>

    <rect x="28" y="336" width="152" height="76" fill="#f8ebff"/>
    <text x="104" y="372" text-anchor="middle" font-family="monospace" font-size="20" font-weight="700" fill="#4f1b58">RAKETE</text>
  </g>

  <g transform="translate(518 34)">
    <rect width="208" height="452" fill="#9a3b21"/>
    <rect x="8" y="8" width="192" height="436" fill="#ffe1b4"/>
    <text x="104" y="44" text-anchor="middle" font-family="monospace" font-size="30" font-weight="700" fill="#7b2d13">NAME</text>

    <rect x="24" y="90" width="160" height="220" fill="#fff7ea"/>
    <g fill="#17364f">
      <rect x="36" y="132" width="16" height="120"/>
      <rect x="52" y="236" width="56" height="16"/>

      <rect x="96" y="132" width="16" height="120"/>
      <rect x="112" y="132" width="44" height="16"/>
      <rect x="112" y="178" width="38" height="16"/>
      <rect x="112" y="236" width="44" height="16"/>

      <rect x="166" y="132" width="16" height="120"/>
      <rect x="182" y="132" width="16" height="16"/>
      <rect x="150" y="148" width="16" height="16"/>
      <rect x="198" y="148" width="16" height="16"/>
      <rect x="134" y="164" width="16" height="88"/>
      <rect x="214" y="164" width="16" height="88"/>
    </g>

    <rect x="24" y="336" width="160" height="76" fill="#ffffff"/>
    <text x="104" y="386" text-anchor="middle" font-family="monospace" font-size="46" font-weight="700" fill="#7b2d13">NORA</text>
  </g>
</svg>
