<svg width="320" height="320" viewBox="0 0 320 320" fill="none" xmlns="http://www.w3.org/2000/svg">
  <rect width="320" height="320" rx="36" fill="#FFF8E4"/>
  <path d="M160 58C196 92 206 144 194 202L160 228L126 202C114 144 124 92 160 58Z" fill="#71D8C7" stroke="#2D4B55" stroke-width="7"/>
  <circle cx="160" cy="132" r="22" fill="#FFFFFF" stroke="#2D4B55" stroke-width="6"/>
  <path d="M126 202L99 228L113 190L126 202Z" fill="#FFCF73" stroke="#2D4B55" stroke-width="6"/>
  <path d="M194 202L221 228L207 190L194 202Z" fill="#FFCF73" stroke="#2D4B55" stroke-width="6"/>
  <path d="M160 228C182 246 181 272 160 286C139 272 138 246 160 228Z" fill="#FF8B4D"/>
  <path d="M160 238C173 250 172 266 160 274C148 266 147 250 160 238Z" fill="#FFD568"/>
  <text x="160" y="306" text-anchor="middle" fill="#2F4D55" font-family="Nunito, sans-serif" font-size="34" font-weight="900">Ding</text>
</svg>
